<svg width="25" height="34" viewBox="0 0 25 34" fill="none" xmlns="http://www.w3.org/2000/svg">
<path d="M23.064 10.336C23.064 13.12 22.104 15.44 20.184 17.296C18.296 19.12 15.4 20.032 11.496 20.032H5.064V34H0.696V0.543999H11.496C15.272 0.543999 18.136 1.456 20.088 3.28C22.072 5.104 23.064 7.456 23.064 10.336ZM11.496 16.432C13.928 16.432 15.72 15.904 16.872 14.848C18.024 13.792 18.6 12.288 18.6 10.336C18.6 6.208 16.232 4.144 11.496 4.144H5.064V16.432H11.496Z" fill="black"/>
<rect x="19" y="28" width="6" height="6" fill="#44C3EB" fill-opacity="0.8"/>
</svg>
