<svg width="100" height="100" viewBox="0 0 100 100" fill="none" xmlns="http://www.w3.org/2000/svg">
<path d="M12.5 50H50V56.25H12.5V50Z" fill="#333333"/>
<path d="M6.25 34.375H37.5V40.625H6.25V34.375Z" fill="#333333"/>
<path d="M93.4969 51.8938L84.1219 30.0188C83.8813 29.4565 83.4809 28.9773 82.9703 28.6406C82.4598 28.304 81.8616 28.1247 81.25 28.125H71.875V21.875C71.875 21.0462 71.5458 20.2513 70.9597 19.6653C70.3737 19.0792 69.5788 18.75 68.75 18.75H18.75V25H65.625V64.2375C64.201 65.0644 62.9549 66.1649 61.9583 67.4758C60.9618 68.7866 60.2346 70.2818 59.8188 71.875H40.1813C39.4207 68.9292 37.6118 66.3619 35.0937 64.6544C32.5757 62.9468 29.5213 62.2163 26.5031 62.5996C23.485 62.983 20.7102 64.4539 18.699 66.7368C16.6878 69.0196 15.5782 71.9576 15.5782 75C15.5782 78.0424 16.6878 80.9804 18.699 83.2632C20.7102 85.5461 23.485 87.017 26.5031 87.4004C29.5213 87.7837 32.5757 87.0532 35.0937 85.3456C37.6118 83.6381 39.4207 81.0708 40.1813 78.125H59.8188C60.4986 80.807 62.0532 83.1857 64.2368 84.8849C66.4204 86.5841 69.1082 87.5066 71.875 87.5066C74.6418 87.5066 77.3296 86.5841 79.5132 84.8849C81.6968 83.1857 83.2515 80.807 83.9313 78.125H90.625C91.4538 78.125 92.2487 77.7958 92.8347 77.2097C93.4208 76.6237 93.75 75.8288 93.75 75V53.125C93.7502 52.7016 93.664 52.2827 93.4969 51.8938ZM28.125 81.25C26.8889 81.25 25.6805 80.8834 24.6527 80.1967C23.6249 79.5099 22.8238 78.5338 22.3508 77.3918C21.8777 76.2497 21.7539 74.9931 21.9951 73.7807C22.2363 72.5683 22.8315 71.4547 23.7056 70.5806C24.5797 69.7065 25.6933 69.1112 26.9057 68.8701C28.1181 68.6289 29.3747 68.7527 30.5168 69.2258C31.6588 69.6988 32.6349 70.4999 33.3217 71.5277C34.0085 72.5555 34.375 73.7639 34.375 75C34.3734 76.6571 33.7143 78.2458 32.5426 79.4176C31.3709 80.5893 29.7821 81.2483 28.125 81.25ZM71.875 34.375H79.1875L85.8875 50H71.875V34.375ZM71.875 81.25C70.6389 81.25 69.4305 80.8834 68.4027 80.1967C67.3749 79.5099 66.5738 78.5338 66.1008 77.3918C65.6277 76.2497 65.5039 74.9931 65.7451 73.7807C65.9863 72.5683 66.5815 71.4547 67.4556 70.5806C68.3297 69.7065 69.4433 69.1112 70.6557 68.8701C71.8681 68.6289 73.1247 68.7527 74.2668 69.2258C75.4088 69.6988 76.3849 70.4999 77.0717 71.5277C77.7585 72.5555 78.125 73.7639 78.125 75C78.1234 76.6571 77.4643 78.2458 76.2926 79.4176C75.1209 80.5893 73.5321 81.2483 71.875 81.25ZM87.5 71.875H83.9313C83.2429 69.1982 81.6857 66.8256 79.5039 65.1289C77.322 63.4323 74.6389 62.5077 71.875 62.5V56.25H87.5V71.875Z" fill="#333333"/>
</svg>
